<svg xmlns="http://www.w3.org/2000/svg" width="144" height="60" fill="none"><path fill="#38445B" fill-rule="evenodd" d="M68.626 20.794v18.06h-3.164v-9.637l-6.508 7.645-6.45-7.597v9.59H49.34V20.794l9.614 11.563 9.672-11.563Zm11.286 18.352a8.854 8.854 0 0 1-3.456-.705 8.7 8.7 0 0 1-2.823-1.895 9 9 0 0 1-1.9-2.824 9.065 9.065 0 0 1 0-6.892 8.929 8.929 0 0 1 1.9-2.819 8.635 8.635 0 0 1 2.823-1.9 8.826 8.826 0 0 1 6.912 0 8.69 8.69 0 0 1 2.824 1.9 8.604 8.604 0 0 1 1.895 2.82 8.852 8.852 0 0 1-4.72 11.61 8.874 8.874 0 0 1-3.455.705Zm0-14.819a5.983 5.983 0 1 0 4.21 1.75 5.867 5.867 0 0 0-4.21-1.755v.005Zm27.025 15.129V21.443h-3.169v10.83L91.355 20.81v17.92h3.169V28.04l12.413 11.417Zm9.353-7.672h-2.873v7.29h-3.164V21.757h8.083a6.155 6.155 0 0 1 2.484.607 4.667 4.667 0 0 1 2.653 4.404 5.642 5.642 0 0 1-.388 2.095 4.335 4.335 0 0 1-1.002 1.511 5.07 5.07 0 0 1-2.386 1.264l4.919 7.422h-3.505l-4.821-7.276Zm-2.873-2.678h4.943a2.993 2.993 0 0 0 1.852-.657 2.233 2.233 0 0 0 .583-1.681 1.992 1.992 0 0 0-1.147-1.993 3.464 3.464 0 0 0-1.336-.34h-4.895v4.67Zm18.255 9.335a8.852 8.852 0 0 0 6.911.005 8.801 8.801 0 0 0 2.824-1.895 8.88 8.88 0 0 0 1.896-9.72 8.616 8.616 0 0 0-1.896-2.82 8.746 8.746 0 0 0-2.824-1.9 8.826 8.826 0 0 0-6.911 0 8.637 8.637 0 0 0-2.824 1.9 8.93 8.93 0 0 0-1.9 2.82 9.06 9.06 0 0 0 0 6.891 9.002 9.002 0 0 0 1.9 2.824 8.694 8.694 0 0 0 2.824 1.895Zm-.347-12.766a5.983 5.983 0 0 1 3.802-1.348v-.005a5.86 5.86 0 0 1 4.21 1.755 5.983 5.983 0 1 1-8.012-.402Z" clip-rule="evenodd"/><path fill="#FD9C8D" d="m29.069 38.22-12.11-12.11L4.85 38.22l12.11 12.108L29.067 38.22Z"/><path fill="#F965B8" d="M29.015 38.256 16.921 26.162 33.717 9.063l-.076 17.084c-.075 4.743-1.016 7.865-4.263 11.78l-.363.33Z"/><path fill="#FF9D52" d="m4.823 38.242 12.094-12.095L.121 9.053l.076 17.083C.272 30.876 1.213 34 4.46 37.913l.363.329Z"/><path fill="#FE4C7C" d="m9.914 33.151 6.92 17.057.106.106 7-17.22-6.982-6.984-7.044 7.041Z"/><path fill="#E9388B" d="M33.702 9.049 16.91 26.147l7.007 7.007L33.702 9.08v-.03Z"/><path fill="#FFBA5B" d="m0 9 16.792 17.098-7.007 7.008L0 9.03V9Z"/></svg>